<?xml version="1.0" encoding="UTF-8" standalone="no"?>
<!-- Created with Inkscape (http://www.inkscape.org/) -->

<svg
   width="95.912003mm"
   height="42.994999mm"
   viewBox="0 0 95.912003 42.994999"
   version="1.1"
   id="svg5"
   xmlns="http://www.w3.org/2000/svg"
   xmlns:svg="http://www.w3.org/2000/svg">
  <defs
     id="defs2">
    <rect
       x="15"
       y="85"
       width="330"
       height="50"
       id="rect42715" />
    <rect
       x="45.61964"
       y="37.325161"
       width="355.49261"
       height="249.45413"
       id="rect1352" />
    <rect
       x="15"
       y="85"
       width="334.27812"
       height="48.566465"
       id="rect42715-0" />
    <rect
       x="15"
       y="85"
       width="334.27812"
       height="48.566465"
       id="rect108359" />
  </defs>
  <g
     id="layer2"
     style="display:inline">
    <path
       style="fill:none;stroke:#000000;stroke-width:0.264584px;stroke-linecap:butt;stroke-linejoin:miter;stroke-opacity:1"
       d="M 2.7684363,42.515622 0.12259136,39.869789 V 2.8281227 L 2.7684363,0.18228938 H 92.727163 L 95.373007,2.8281227 V 39.869789 l -2.645844,2.645833 z"
       id="path22954" />
    <path
       style="fill:#c8b7b7;fill-opacity:1;stroke-width:0.182882"
       d="M 1.4941367,40.908668 0.26458333,39.669627 V 21.290022 2.9104167 L 1.5947832,1.5891007 2.9249821,0.2677847 H 47.73149 92.537997 l 1.321322,1.330194 1.321321,1.330193 V 21.207747 39.487324 l -1.321321,1.330193 -1.321322,1.330192 H 47.630844 2.7236892 Z M 12.486497,31.501429 c 2.47199,-4.497557 4.539571,-8.133616 4.594625,-8.08013 0.05505,0.05349 2.07582,3.733304 4.490589,8.177378 l 4.390488,8.080129 2.717702,0.05073 c 2.429743,0.04536 2.705791,0.01971 2.605305,-0.242162 -0.06182,-0.161089 -2.627562,-4.621969 -5.701661,-9.913064 -3.074098,-5.291096 -5.604979,-9.669105 -5.624178,-9.728905 -0.0192,-0.0598 2.24884,-3.868831 5.040085,-8.464509 2.791246,-4.5956764 5.074991,-8.4000993 5.074991,-8.4542733 0,-0.05417 -1.143203,-0.0985 -2.540455,-0.0985 h -2.540454 l -3.886723,6.9037867 c -2.137697,3.7970826 -3.906301,6.9283356 -3.930229,6.9583396 -0.02393,0.03001 -1.802063,-3.07599 -3.951409,-6.9022106 L 9.3172711,2.8312727 6.6197533,2.8296727 c -1.4836345,-8.73e-4 -2.6975178,0.03819 -2.6975178,0.08679 0,0.0486 2.2807339,3.8548289 5.0682981,8.4582813 2.7875654,4.603452 5.0683724,8.494813 5.0684614,8.647468 8.8e-5,0.152655 -2.499246,4.596682 -5.5540785,9.875617 -3.0548304,5.278932 -5.5888055,9.66208 -5.6310566,9.740328 -0.04225,0.07825 1.0920407,0.119396 2.520645,0.09144 l 2.5974634,-0.05083 z m 27.551551,3.513886 1.459564,-4.754919 h 7.082453 7.082451 l 0.371355,1.23445 c 0.204245,0.67895 0.852383,2.798091 1.440303,4.709205 l 1.068945,3.474755 2.521019,0.05102 c 1.984633,0.04017 2.503732,0.0013 2.439771,-0.182883 -0.04468,-0.128648 -2.707781,-8.443007 -5.91799,-18.476359 L 51.749176,2.8281297 H 48.722123 45.69507 L 39.872666,20.979145 c -3.202324,9.983058 -5.862443,18.295036 -5.911379,18.471058 -0.0814,0.29283 0.111108,0.320043 2.264113,0.320037 l 2.353083,-2e-6 z m 52.296214,4.343448 c 0.105862,-0.502378 0.468904,-3.392144 0.468904,-3.732435 0,-0.201438 -1.470028,-0.245245 -8.229715,-0.245245 H 76.343735 V 19.104607 2.8281297 H 73.966261 71.588787 V 21.299188 39.770246 H 81.918168 92.24755 Z"
       id="path22993" />
    <path
       style="fill:#ffccaa;fill-opacity:1;stroke-width:0.691207"
       d=""
       id="path23247"
       transform="scale(0.26458333)" />
  </g>
  <g
     id="layer3">
    <path
       style="fill:#ff8080;fill-rule:evenodd;stroke:#000000"
       id="path32797"
       d="m 185,50 c 0,0 0,0 0,0 0,0 0,0 0,10e-7 0,0 0,-10e-7 0,-2e-6 -1e-5,-6e-6 0,-1e-5 0,-1.1e-5 2e-5,-4e-6 3e-5,1.2e-5 3e-5,2.6e-5 1e-5,3.6e-5 -3e-5,6.1e-5 -6e-5,6.3e-5 -8e-5,5e-6 -1.2e-4,-7.2e-5 -1.3e-4,-1.4e-4 0,-1.4e-4 1.5e-4,-2.26e-4 2.7e-4,-2.21e-4 2.5e-4,9e-6 3.9e-4,2.58e-4 3.7e-4,4.79e-4 -3e-5,3.92e-4 -4.3e-4,6.21e-4 -7.9e-4,5.84e-4 -6.1e-4,-6.3e-5 -9.6e-4,-6.95e-4 -8.9e-4,-0.0013 1.2e-4,-9.06e-4 0.001,-0.0014 0.002,-0.0013 0.001,1.95e-4 0.002,0.0016 0.002,0.0028 -3.1e-4,0.0018 -0.002,0.0029 -0.004,0.0025 -0.003,-4.6e-4 -0.004,-0.0031 -0.003,-0.0055 6.7e-4,-0.0034 0.004,-0.0052 0.008,-0.0046 0.004,9.29e-4 0.007,0.0057 0.006,0.01 -0.001,0.0058 -0.007,0.0089 -0.013,0.0076 -0.007,-0.0017 -0.0114,-0.0097 -0.01,-0.01681 0.002,-0.0094 0.0123,-0.01436 0.0214,-0.01215 0.0117,0.0029 0.0179,0.01555 0.0151,0.02685 -0.004,0.01446 -0.0194,0.02212 -0.0333,0.0185 -0.0177,-0.0046 -0.0271,-0.02388 -0.0225,-0.04103 0.006,-0.02149 0.0292,-0.03281 0.05,-0.02717 0.0259,0.007 0.0395,0.03534 0.0326,0.06048 -0.009,0.03094 -0.0425,0.04715 -0.0726,0.03873 -0.0367,-0.01029 -0.0559,-0.05069 -0.0458,-0.08645 0.0123,-0.04333 0.0601,-0.06596 0.10232,-0.05377 0.0508,0.01467 0.0773,0.0708 0.0628,0.120378 -0.0173,0.0593 -0.0829,0.09016 -0.14082,0.07302 -0.0688,-0.02037 -0.10459,-0.09663 -0.0845,-0.163883 0.0238,-0.07952 0.11204,-0.120765 0.18978,-0.09725 0.0914,0.02765 0.13883,0.129283 0.11151,0.218759 -0.032,0.104729 -0.14854,0.15892 -0.25108,0.127322 -0.11947,-0.03681 -0.18121,-0.169946 -0.14484,-0.286991 0.0422,-0.135771 0.19369,-0.205867 0.32679,-0.164171 0.15376,0.04817 0.23306,0.219941 0.18546,0.370758 -0.0548,0.173551 -0.24888,0.262972 -0.4192,0.208834 -0.19528,-0.06207 -0.2958,-0.280713 -0.23444,-0.472446 0.0701,-0.219054 0.31562,-0.33172 0.53081,-0.262426 0.24503,0.0789 0.37095,0.353828 0.29294,0.594644 -0.0885,0.27335 -0.39554,0.413718 -0.6643,0.32616 -0.30415,-0.09909 -0.46022,-0.440988 -0.36223,-0.740159 0.11057,-0.337595 0.4904,-0.510704 0.82259,-0.401341 0.37384,0.123071 0.5654,0.544028 0.44366,0.912016 -0.13664,0.41303 -0.60211,0.624544 -1.00883,0.489369 -0.45536,-0.151341 -0.6884,-0.664917 -0.53866,-1.113467 0.16724,-0.500986 0.73271,-0.757236 1.22636,-0.591742 0.5501,0.184417 0.83132,0.805769 0.64881,1.347991 -0.20293,0.602886 -0.88438,0.910922 -1.47881,0.710063 -0.65953,-0.222858 -0.99634,-0.96884 -0.77573,-1.619309 0.24427,-0.720244 1.05945,-1.087875 1.76999,-0.846034 0.78522,0.26726 1.18583,1.156535 0.9212,1.93138 -0.29189,0.854671 -1.26041,1.290517 -2.104,1.001464 -0.92882,-0.318254 -1.40227,-1.371407 -1.08707,-2.28841 0.34643,-1.007876 1.48987,-1.521414 2.48516,-1.17827 1.09209,0.376514 1.64831,1.616166 1.27532,2.694858 -0.40859,1.181667 -1.75064,1.783281 -2.91807,1.378478 -1.27688,-0.442751 -1.92672,-1.893675 -1.48802,-3.155438 0.47909,-1.377951 2.04565,-2.078984 3.40757,-1.604225 1.48515,0.517716 2.24046,2.20696 1.72737,3.675127 -0.55872,1.59874 -2.37801,2.411545 -3.95876,1.857763 -1.71898,-0.602205 -2.59264,-2.559208 -1.99569,-4.259169 0.64828,-1.846151 2.75098,-2.784142 4.57703,-2.141459 1.98053,0.697053 2.98649,2.953773 2.29539,4.913078 -0.74863,2.122405 -3.16802,3.200113 -5.26803,2.457797 -2.27207,-0.803136 -3.42545,-3.394174 -2.62902,-5.642642 0.86068,-2.429837 3.63271,-3.66296 6.03769,-2.809383 2.596,0.921378 3.9131,3.884105 2.99924,6.453934 -0.98536,2.770885 -4.14885,4.176348 -6.89221,3.19894 -2.95481,-1.052744 -4.45318,-4.427431 -3.40884,-7.353308 1.12366,-3.148104 4.72037,-4.744111 7.83809,-3.629319 3.35111,1.198245 5.04963,5.028196 3.86074,8.347408 -1.27662,3.564161 -5.35143,5.370255 -8.88214,4.103495 -3.78761,-1.358936 -5.70651,-5.690622 -4.35797,-9.443173 1.44532,-4.021839 6.04633,-6.058956 10.03143,-4.624568 4.26719,1.535921 6.42812,6.419114 4.9037,10.647839 -1.63088,4.524036 -6.80956,6.814566 -11.29336,5.195768 -4.79276,-1.730347 -7.21887,-7.218258 -5.50121,-11.968944 1.83448,-5.073771 7.64581,-7.641615 12.6756,-5.820457 5.36745,1.943412 8.0834,8.092834 6.15395,13.414333 -2.05732,5.674182 -8.55995,8.544817 -14.18617,6.502129 -5.9944,-2.176363 -9.0265,-9.047806 -6.86546,-14.992162 2.3007,-6.328529 9.55704,-9.529062 15.83337,-7.244411 6.67698,2.430492 10.05316,10.088332 7.63946,16.710901 -2.56592,7.040195 -10.64235,10.59943 -17.62585,8.051066 -7.41861,-2.707142 -11.16855,-11.219764 -8.47975,-18.579339 2.85435,-7.812687 11.8213,-11.761185 19.57253,-8.925994 8.22288,3.007706 12.37803,12.447653 9.39032,20.606586 -3.16741,8.649643 -13.09956,13.019785 -21.6827,9.873237 -9.09346,-3.33363 -13.68716,-13.777748 -10.37528,-22.802082 3.50657,-9.554822 14.48298,-14.380875 23.96597,-10.896975 10.0342,3.686408 15.10167,15.216 11.43887,25.175595 -2.2286,6.059844 -7.36764,10.755039 -13.57152,12.510211"
       transform="matrix(0.26458449,0,0,0.26458333,0.12259197,2.8281229)" />
  </g>
  <g
     id="layer1"
     style="display:inline"
     transform="translate(-0.52916667,4.2333335)">
    <text
       xml:space="preserve"
       transform="matrix(0.26730716,0,0,0.27132768,-9.73049,-22.595536)"
       id="text1350"
       style="font-style:normal;font-variant:normal;font-weight:normal;font-stretch:normal;font-size:192px;line-height:1.25;font-family:'Gill Sans MT Ext Condensed Bold';-inkscape-font-specification:'Gill Sans MT Ext Condensed Bold, ';white-space:pre;shape-inside:url(#rect1352);fill:#000000;fill-opacity:1;stroke:none"><tspan
         x="45.619141"
         y="212.49164"
         id="tspan7483"><tspan
           style="font-family:'FiraCode Nerd Font Mono';-inkscape-font-specification:'FiraCode Nerd Font Mono';fill:#ff2a2a"
           id="tspan7481">XAL</tspan></tspan></text>
  </g>
  <g
     id="layer4"
     style="display:inline">
    <path
       style="fill:#ff5555;stroke:#000000;stroke-width:0.264583px;stroke-linecap:butt;stroke-linejoin:miter;stroke-opacity:1"
       d="M 2.6458333,22.489583 3.96875,21.166666 h 87.312499 l 1.322917,1.322917 V 35.71875 l -1.322917,1.322916 H 3.96875 L 2.6458333,35.71875 Z"
       id="path71398" />
  </g>
  <g
     id="layer5"
     style="display:none">
    <text
       xml:space="preserve"
       transform="matrix(0.26458333,0,0,0.26458333,-0.06384436,-0.51564038)"
       id="text42713"
       style="font-style:normal;font-weight:normal;font-size:41.3333px;line-height:1.25;font-family:sans-serif;white-space:pre;shape-inside:url(#rect42715-0);fill:#000000;fill-opacity:1;stroke:none"
       x="609.54138"
       y="0"><tspan
         x="42.241244"
         y="122.70962"
         id="tspan7487"><tspan
           style="font-weight:bold;font-family:'FiraCode Nerd Font Mono';-inkscape-font-specification:'FiraCode Nerd Font Mono Bold';text-align:center;text-anchor:middle"
           id="tspan7485">TCPMessages</tspan></tspan></text>
  </g>
  <g
     id="g108357"
     style="display:inline">
    <text
       xml:space="preserve"
       id="text108355"
       style="font-style:normal;font-weight:normal;font-size:10.2306px;line-height:1.25;font-family:sans-serif;white-space:pre;fill:#000000;fill-opacity:1;stroke:none;stroke-width:0.264583"
       x="47.786041"
       y="32.937199"><tspan
         id="tspan108353"
         style="font-style:normal;font-variant:normal;font-weight:bold;font-stretch:normal;font-size:10.2306px;font-family:'FiraCode Nerd Font Mono';-inkscape-font-specification:'FiraCode Nerd Font Mono Bold';text-align:center;text-anchor:middle;stroke-width:0.264583">Proxy</tspan></text>
  </g>
</svg>
